<svg xmlns="http://www.w3.org/2000/svg" viewBox="0 0 32 32" width="32" height="32">
  <!-- Microsoft Teams-style monochrome icon for system tray -->
  <!-- Small person (upper right) -->
  <circle cx="25" cy="6" r="2.5" fill="white"/>
  <path d="M21,14 C21,11.5 22.5,10 25,10 C27.5,10 29,11.5 29,14 L29,17 C29,17.5 28.5,18 28,18 L22,18 C21.5,18 21,17.5 21,17 Z" fill="white" opacity="0.6"/>
  <!-- Main person (behind T) -->
  <circle cx="22" cy="10.5" r="3" fill="white"/>
  <path d="M16.5,19 C16.5,15.8 18.5,14 22,14 C25.5,14 27.5,15.8 27.5,19 L27.5,23 C27.5,23.5 27,24 26.5,24 L17.5,24 C17,24 16.5,23.5 16.5,23 Z" fill="white" opacity="0.6"/>
  <!-- Main card with T -->
  <rect x="2" y="7" width="19" height="19" rx="2.5" fill="white"/>
  <path d="M7.5,12.5 L7.5,14.5 L10,14.5 L10,22 L12,22 L12,14.5 L14.5,14.5 L14.5,12.5 Z" fill="#2d2d2d"/>
</svg>
